<mxfile host="app.diagrams.net" agent="Mozilla/5.0 (Macintosh; Intel Mac OS X 10_15_7) AppleWebKit/537.36 (KHTML, like Gecko) Chrome/134.0.0.0 Safari/537.36 Edg/134.0.0.0" version="26.1.3">
  <diagram name="Page-1" id="JgQVterKX6ATanXr_cuS">
    <mxGraphModel dx="1313" dy="760" grid="1" gridSize="10" guides="1" tooltips="1" connect="1" arrows="1" fold="1" page="1" pageScale="1" pageWidth="850" pageHeight="1100" math="0" shadow="0">
      <root>
        <mxCell id="0" />
        <mxCell id="1" parent="0" />
        <mxCell id="0cZcBHeRuwc4iiY6plQv-1" value="Student" style="shape=umlActor;verticalLabelPosition=bottom;verticalAlign=top;html=1;" vertex="1" parent="1">
          <mxGeometry x="150" y="210" width="30" height="60" as="geometry" />
        </mxCell>
        <mxCell id="0cZcBHeRuwc4iiY6plQv-2" value="Teacher" style="shape=umlActor;verticalLabelPosition=bottom;verticalAlign=top;html=1;" vertex="1" parent="1">
          <mxGeometry x="150" y="600" width="30" height="60" as="geometry" />
        </mxCell>
        <mxCell id="0cZcBHeRuwc4iiY6plQv-3" value="Administrator" style="shape=umlActor;verticalLabelPosition=bottom;verticalAlign=top;html=1;" vertex="1" parent="1">
          <mxGeometry x="1020" y="600" width="30" height="60" as="geometry" />
        </mxCell>
        <mxCell id="0cZcBHeRuwc4iiY6plQv-4" value="System" style="shape=umlActor;verticalLabelPosition=bottom;verticalAlign=top;html=1;" vertex="1" parent="1">
          <mxGeometry x="1030" y="350" width="30" height="60" as="geometry" />
        </mxCell>
        <mxCell id="0cZcBHeRuwc4iiY6plQv-8" value="" style="rounded=0;whiteSpace=wrap;html=1;fillColor=none;" vertex="1" parent="1">
          <mxGeometry x="220" y="210" width="770" height="510" as="geometry" />
        </mxCell>
        <mxCell id="0cZcBHeRuwc4iiY6plQv-9" value="Internal E-Learning Platform" style="text;html=1;align=center;verticalAlign=middle;resizable=0;points=[];autosize=1;strokeColor=none;fillColor=none;" vertex="1" parent="1">
          <mxGeometry x="220" y="170" width="170" height="30" as="geometry" />
        </mxCell>
        <mxCell id="0cZcBHeRuwc4iiY6plQv-10" value="Watch video&lt;div&gt;course&lt;/div&gt;" style="ellipse;whiteSpace=wrap;html=1;" vertex="1" parent="1">
          <mxGeometry x="330" y="240" width="130" height="40" as="geometry" />
        </mxCell>
        <mxCell id="0cZcBHeRuwc4iiY6plQv-12" value="" style="endArrow=classic;html=1;rounded=0;entryX=0.068;entryY=0.27;entryDx=0;entryDy=0;entryPerimeter=0;" edge="1" parent="1" target="0cZcBHeRuwc4iiY6plQv-10">
          <mxGeometry width="50" height="50" relative="1" as="geometry">
            <mxPoint x="180" y="250" as="sourcePoint" />
            <mxPoint x="230" y="200" as="targetPoint" />
          </mxGeometry>
        </mxCell>
        <mxCell id="0cZcBHeRuwc4iiY6plQv-13" value="See reference&lt;div&gt;resource&lt;/div&gt;" style="ellipse;whiteSpace=wrap;html=1;" vertex="1" parent="1">
          <mxGeometry x="550" y="230" width="130" height="40" as="geometry" />
        </mxCell>
        <mxCell id="0cZcBHeRuwc4iiY6plQv-14" value="" style="endArrow=classic;html=1;rounded=0;entryX=1;entryY=0.5;entryDx=0;entryDy=0;exitX=0;exitY=0.5;exitDx=0;exitDy=0;dashed=1;" edge="1" parent="1" source="0cZcBHeRuwc4iiY6plQv-13" target="0cZcBHeRuwc4iiY6plQv-10">
          <mxGeometry width="50" height="50" relative="1" as="geometry">
            <mxPoint x="560" y="470" as="sourcePoint" />
            <mxPoint x="610" y="420" as="targetPoint" />
          </mxGeometry>
        </mxCell>
        <mxCell id="0cZcBHeRuwc4iiY6plQv-43" value="&amp;lt;&amp;lt;extend&amp;gt;&amp;gt;" style="edgeLabel;html=1;align=center;verticalAlign=middle;resizable=0;points=[];" vertex="1" connectable="0" parent="0cZcBHeRuwc4iiY6plQv-14">
          <mxGeometry x="-0.1901" y="1" relative="1" as="geometry">
            <mxPoint as="offset" />
          </mxGeometry>
        </mxCell>
        <mxCell id="0cZcBHeRuwc4iiY6plQv-16" value="Submit video&lt;div&gt;course&lt;/div&gt;" style="ellipse;whiteSpace=wrap;html=1;" vertex="1" parent="1">
          <mxGeometry x="660" y="650" width="130" height="40" as="geometry" />
        </mxCell>
        <mxCell id="0cZcBHeRuwc4iiY6plQv-17" value="Register course" style="ellipse;whiteSpace=wrap;html=1;" vertex="1" parent="1">
          <mxGeometry x="440" y="580" width="130" height="40" as="geometry" />
        </mxCell>
        <mxCell id="0cZcBHeRuwc4iiY6plQv-18" value="" style="endArrow=classic;html=1;rounded=0;entryX=0;entryY=0.5;entryDx=0;entryDy=0;" edge="1" parent="1" target="0cZcBHeRuwc4iiY6plQv-17">
          <mxGeometry width="50" height="50" relative="1" as="geometry">
            <mxPoint x="180" y="640" as="sourcePoint" />
            <mxPoint x="230" y="590" as="targetPoint" />
          </mxGeometry>
        </mxCell>
        <mxCell id="0cZcBHeRuwc4iiY6plQv-19" value="" style="endArrow=classic;html=1;rounded=0;entryX=0.5;entryY=1;entryDx=0;entryDy=0;exitX=0;exitY=0.5;exitDx=0;exitDy=0;dashed=1;" edge="1" parent="1" source="0cZcBHeRuwc4iiY6plQv-16" target="0cZcBHeRuwc4iiY6plQv-17">
          <mxGeometry width="50" height="50" relative="1" as="geometry">
            <mxPoint x="560" y="470" as="sourcePoint" />
            <mxPoint x="610" y="420" as="targetPoint" />
          </mxGeometry>
        </mxCell>
        <mxCell id="0cZcBHeRuwc4iiY6plQv-23" value="&amp;lt;&amp;lt;include&amp;gt;&amp;gt;" style="edgeLabel;html=1;align=center;verticalAlign=middle;resizable=0;points=[];" vertex="1" connectable="0" parent="0cZcBHeRuwc4iiY6plQv-19">
          <mxGeometry x="-0.0913" y="-1" relative="1" as="geometry">
            <mxPoint as="offset" />
          </mxGeometry>
        </mxCell>
        <mxCell id="0cZcBHeRuwc4iiY6plQv-26" style="rounded=0;orthogonalLoop=1;jettySize=auto;html=1;entryX=1;entryY=0.5;entryDx=0;entryDy=0;dashed=1;" edge="1" parent="1" source="0cZcBHeRuwc4iiY6plQv-24" target="0cZcBHeRuwc4iiY6plQv-17">
          <mxGeometry relative="1" as="geometry" />
        </mxCell>
        <mxCell id="0cZcBHeRuwc4iiY6plQv-28" value="&amp;lt;&amp;lt;extend&amp;gt;&amp;gt;" style="edgeLabel;html=1;align=center;verticalAlign=middle;resizable=0;points=[];" vertex="1" connectable="0" parent="0cZcBHeRuwc4iiY6plQv-26">
          <mxGeometry x="0.0482" y="-1" relative="1" as="geometry">
            <mxPoint as="offset" />
          </mxGeometry>
        </mxCell>
        <mxCell id="0cZcBHeRuwc4iiY6plQv-24" value="Approve course" style="ellipse;whiteSpace=wrap;html=1;" vertex="1" parent="1">
          <mxGeometry x="670" y="580" width="130" height="40" as="geometry" />
        </mxCell>
        <mxCell id="0cZcBHeRuwc4iiY6plQv-25" value="" style="endArrow=classic;html=1;rounded=0;entryX=1;entryY=1;entryDx=0;entryDy=0;" edge="1" parent="1" source="0cZcBHeRuwc4iiY6plQv-3" target="0cZcBHeRuwc4iiY6plQv-24">
          <mxGeometry width="50" height="50" relative="1" as="geometry">
            <mxPoint x="780" y="680" as="sourcePoint" />
            <mxPoint x="830" y="630" as="targetPoint" />
          </mxGeometry>
        </mxCell>
        <mxCell id="0cZcBHeRuwc4iiY6plQv-29" value="Create subject" style="ellipse;whiteSpace=wrap;html=1;" vertex="1" parent="1">
          <mxGeometry x="850" y="460" width="130" height="40" as="geometry" />
        </mxCell>
        <mxCell id="0cZcBHeRuwc4iiY6plQv-30" value="" style="endArrow=classic;html=1;rounded=0;entryX=0.5;entryY=1;entryDx=0;entryDy=0;" edge="1" parent="1" target="0cZcBHeRuwc4iiY6plQv-29">
          <mxGeometry width="50" height="50" relative="1" as="geometry">
            <mxPoint x="1020" y="630" as="sourcePoint" />
            <mxPoint x="610" y="420" as="targetPoint" />
          </mxGeometry>
        </mxCell>
        <mxCell id="0cZcBHeRuwc4iiY6plQv-31" value="Register E-Book" style="ellipse;whiteSpace=wrap;html=1;" vertex="1" parent="1">
          <mxGeometry x="350" y="510" width="130" height="40" as="geometry" />
        </mxCell>
        <mxCell id="0cZcBHeRuwc4iiY6plQv-32" value="" style="endArrow=classic;html=1;rounded=0;entryX=0;entryY=1;entryDx=0;entryDy=0;" edge="1" parent="1" target="0cZcBHeRuwc4iiY6plQv-31">
          <mxGeometry width="50" height="50" relative="1" as="geometry">
            <mxPoint x="180" y="630" as="sourcePoint" />
            <mxPoint x="230" y="580" as="targetPoint" />
          </mxGeometry>
        </mxCell>
        <mxCell id="0cZcBHeRuwc4iiY6plQv-35" style="edgeStyle=orthogonalEdgeStyle;rounded=0;orthogonalLoop=1;jettySize=auto;html=1;exitX=0;exitY=0.5;exitDx=0;exitDy=0;entryX=1;entryY=0.5;entryDx=0;entryDy=0;dashed=1;" edge="1" parent="1" source="0cZcBHeRuwc4iiY6plQv-33" target="0cZcBHeRuwc4iiY6plQv-31">
          <mxGeometry relative="1" as="geometry" />
        </mxCell>
        <mxCell id="0cZcBHeRuwc4iiY6plQv-36" value="&amp;lt;&amp;lt;extend&amp;gt;&amp;gt;" style="edgeLabel;html=1;align=center;verticalAlign=middle;resizable=0;points=[];" vertex="1" connectable="0" parent="0cZcBHeRuwc4iiY6plQv-35">
          <mxGeometry x="-0.1342" y="1" relative="1" as="geometry">
            <mxPoint as="offset" />
          </mxGeometry>
        </mxCell>
        <mxCell id="0cZcBHeRuwc4iiY6plQv-33" value="Approve E-Book" style="ellipse;whiteSpace=wrap;html=1;" vertex="1" parent="1">
          <mxGeometry x="650" y="510" width="130" height="40" as="geometry" />
        </mxCell>
        <mxCell id="0cZcBHeRuwc4iiY6plQv-34" value="" style="endArrow=classic;html=1;rounded=0;entryX=1;entryY=1;entryDx=0;entryDy=0;" edge="1" parent="1" target="0cZcBHeRuwc4iiY6plQv-33">
          <mxGeometry width="50" height="50" relative="1" as="geometry">
            <mxPoint x="1020" y="630" as="sourcePoint" />
            <mxPoint x="610" y="420" as="targetPoint" />
          </mxGeometry>
        </mxCell>
        <mxCell id="0cZcBHeRuwc4iiY6plQv-38" style="rounded=0;orthogonalLoop=1;jettySize=auto;html=1;entryX=0.5;entryY=1;entryDx=0;entryDy=0;dashed=1;" edge="1" parent="1" source="0cZcBHeRuwc4iiY6plQv-37" target="0cZcBHeRuwc4iiY6plQv-31">
          <mxGeometry relative="1" as="geometry" />
        </mxCell>
        <mxCell id="0cZcBHeRuwc4iiY6plQv-41" value="&amp;lt;&amp;lt;extend&amp;gt;&amp;gt;" style="edgeLabel;html=1;align=center;verticalAlign=middle;resizable=0;points=[];" vertex="1" connectable="0" parent="0cZcBHeRuwc4iiY6plQv-38">
          <mxGeometry x="0.3227" y="-1" relative="1" as="geometry">
            <mxPoint as="offset" />
          </mxGeometry>
        </mxCell>
        <mxCell id="0cZcBHeRuwc4iiY6plQv-37" value="Add reference&lt;div&gt;resource&lt;/div&gt;" style="ellipse;whiteSpace=wrap;html=1;" vertex="1" parent="1">
          <mxGeometry x="340" y="650" width="130" height="40" as="geometry" />
        </mxCell>
        <mxCell id="0cZcBHeRuwc4iiY6plQv-39" value="" style="endArrow=classic;html=1;rounded=0;entryX=0;entryY=1;entryDx=0;entryDy=0;dashed=1;exitX=0.69;exitY=-0.002;exitDx=0;exitDy=0;exitPerimeter=0;" edge="1" parent="1" source="0cZcBHeRuwc4iiY6plQv-37" target="0cZcBHeRuwc4iiY6plQv-17">
          <mxGeometry width="50" height="50" relative="1" as="geometry">
            <mxPoint x="420" y="640" as="sourcePoint" />
            <mxPoint x="470" y="590" as="targetPoint" />
          </mxGeometry>
        </mxCell>
        <mxCell id="0cZcBHeRuwc4iiY6plQv-40" value="&amp;lt;&amp;lt;extend&amp;gt;&amp;gt;" style="edgeLabel;html=1;align=center;verticalAlign=middle;resizable=0;points=[];" vertex="1" connectable="0" parent="0cZcBHeRuwc4iiY6plQv-39">
          <mxGeometry x="-0.1408" y="-1" relative="1" as="geometry">
            <mxPoint as="offset" />
          </mxGeometry>
        </mxCell>
        <mxCell id="0cZcBHeRuwc4iiY6plQv-44" value="Register Exam" style="ellipse;whiteSpace=wrap;html=1;" vertex="1" parent="1">
          <mxGeometry x="400" y="440" width="130" height="40" as="geometry" />
        </mxCell>
        <mxCell id="0cZcBHeRuwc4iiY6plQv-45" value="" style="endArrow=classic;html=1;rounded=0;entryX=0;entryY=1;entryDx=0;entryDy=0;" edge="1" parent="1" target="0cZcBHeRuwc4iiY6plQv-44">
          <mxGeometry width="50" height="50" relative="1" as="geometry">
            <mxPoint x="190" y="610" as="sourcePoint" />
            <mxPoint x="240" y="560" as="targetPoint" />
          </mxGeometry>
        </mxCell>
        <mxCell id="0cZcBHeRuwc4iiY6plQv-48" style="rounded=0;orthogonalLoop=1;jettySize=auto;html=1;entryX=1;entryY=0.5;entryDx=0;entryDy=0;dashed=1;" edge="1" parent="1" source="0cZcBHeRuwc4iiY6plQv-46" target="0cZcBHeRuwc4iiY6plQv-44">
          <mxGeometry relative="1" as="geometry" />
        </mxCell>
        <mxCell id="0cZcBHeRuwc4iiY6plQv-49" value="&amp;lt;&amp;lt;extend&amp;gt;&amp;gt;" style="edgeLabel;html=1;align=center;verticalAlign=middle;resizable=0;points=[];" vertex="1" connectable="0" parent="0cZcBHeRuwc4iiY6plQv-48">
          <mxGeometry x="0.0345" relative="1" as="geometry">
            <mxPoint as="offset" />
          </mxGeometry>
        </mxCell>
        <mxCell id="0cZcBHeRuwc4iiY6plQv-46" value="Approve Exam" style="ellipse;whiteSpace=wrap;html=1;" vertex="1" parent="1">
          <mxGeometry x="660" y="430" width="130" height="40" as="geometry" />
        </mxCell>
        <mxCell id="0cZcBHeRuwc4iiY6plQv-47" value="" style="endArrow=classic;html=1;rounded=0;entryX=1;entryY=1;entryDx=0;entryDy=0;" edge="1" parent="1" target="0cZcBHeRuwc4iiY6plQv-46">
          <mxGeometry width="50" height="50" relative="1" as="geometry">
            <mxPoint x="1020" y="630" as="sourcePoint" />
            <mxPoint x="610" y="420" as="targetPoint" />
          </mxGeometry>
        </mxCell>
        <mxCell id="0cZcBHeRuwc4iiY6plQv-50" value="Do Exam" style="ellipse;whiteSpace=wrap;html=1;" vertex="1" parent="1">
          <mxGeometry x="425" y="320" width="130" height="40" as="geometry" />
        </mxCell>
        <mxCell id="0cZcBHeRuwc4iiY6plQv-51" value="" style="endArrow=classic;html=1;rounded=0;entryX=0;entryY=0;entryDx=0;entryDy=0;" edge="1" parent="1" target="0cZcBHeRuwc4iiY6plQv-50">
          <mxGeometry width="50" height="50" relative="1" as="geometry">
            <mxPoint x="190" y="260" as="sourcePoint" />
            <mxPoint x="240" y="210" as="targetPoint" />
          </mxGeometry>
        </mxCell>
        <mxCell id="0cZcBHeRuwc4iiY6plQv-52" value="Check Exam" style="ellipse;whiteSpace=wrap;html=1;" vertex="1" parent="1">
          <mxGeometry x="410" y="380" width="130" height="40" as="geometry" />
        </mxCell>
        <mxCell id="0cZcBHeRuwc4iiY6plQv-53" value="" style="endArrow=classic;html=1;rounded=0;entryX=0;entryY=1;entryDx=0;entryDy=0;" edge="1" parent="1" target="0cZcBHeRuwc4iiY6plQv-52">
          <mxGeometry width="50" height="50" relative="1" as="geometry">
            <mxPoint x="190" y="600" as="sourcePoint" />
            <mxPoint x="240" y="550" as="targetPoint" />
          </mxGeometry>
        </mxCell>
        <mxCell id="0cZcBHeRuwc4iiY6plQv-54" value="" style="endArrow=classic;html=1;rounded=0;entryX=1;entryY=0.5;entryDx=0;entryDy=0;" edge="1" parent="1" target="0cZcBHeRuwc4iiY6plQv-52">
          <mxGeometry width="50" height="50" relative="1" as="geometry">
            <mxPoint x="1020" y="400" as="sourcePoint" />
            <mxPoint x="610" y="420" as="targetPoint" />
          </mxGeometry>
        </mxCell>
        <mxCell id="0cZcBHeRuwc4iiY6plQv-55" value="Report score/grade" style="ellipse;whiteSpace=wrap;html=1;" vertex="1" parent="1">
          <mxGeometry x="690" y="330" width="130" height="40" as="geometry" />
        </mxCell>
        <mxCell id="0cZcBHeRuwc4iiY6plQv-56" value="" style="endArrow=classic;html=1;rounded=0;entryX=1;entryY=0.5;entryDx=0;entryDy=0;" edge="1" parent="1" target="0cZcBHeRuwc4iiY6plQv-55">
          <mxGeometry width="50" height="50" relative="1" as="geometry">
            <mxPoint x="1020" y="400" as="sourcePoint" />
            <mxPoint x="830" y="350" as="targetPoint" />
          </mxGeometry>
        </mxCell>
        <mxCell id="0cZcBHeRuwc4iiY6plQv-57" value="Generate report file" style="ellipse;whiteSpace=wrap;html=1;" vertex="1" parent="1">
          <mxGeometry x="780" y="250" width="130" height="40" as="geometry" />
        </mxCell>
        <mxCell id="0cZcBHeRuwc4iiY6plQv-58" value="" style="endArrow=classic;html=1;rounded=0;entryX=0.5;entryY=1;entryDx=0;entryDy=0;" edge="1" parent="1" target="0cZcBHeRuwc4iiY6plQv-57">
          <mxGeometry width="50" height="50" relative="1" as="geometry">
            <mxPoint x="1020" y="400" as="sourcePoint" />
            <mxPoint x="610" y="420" as="targetPoint" />
          </mxGeometry>
        </mxCell>
        <mxCell id="0cZcBHeRuwc4iiY6plQv-59" value="" style="endArrow=classic;html=1;rounded=0;exitX=0;exitY=1;exitDx=0;exitDy=0;entryX=0.5;entryY=0;entryDx=0;entryDy=0;dashed=1;" edge="1" parent="1" source="0cZcBHeRuwc4iiY6plQv-57" target="0cZcBHeRuwc4iiY6plQv-55">
          <mxGeometry width="50" height="50" relative="1" as="geometry">
            <mxPoint x="560" y="470" as="sourcePoint" />
            <mxPoint x="610" y="420" as="targetPoint" />
          </mxGeometry>
        </mxCell>
        <mxCell id="0cZcBHeRuwc4iiY6plQv-60" value="&amp;lt;&amp;lt;include&amp;gt;&amp;gt;" style="edgeLabel;html=1;align=center;verticalAlign=middle;resizable=0;points=[];" vertex="1" connectable="0" parent="0cZcBHeRuwc4iiY6plQv-59">
          <mxGeometry x="-0.1597" y="-2" relative="1" as="geometry">
            <mxPoint as="offset" />
          </mxGeometry>
        </mxCell>
      </root>
    </mxGraphModel>
  </diagram>
</mxfile>
